<?xml version="1.0" encoding="utf-8"?>
<!-- Generator: Adobe Illustrator 27.2.0, SVG Export Plug-In . SVG Version: 6.00 Build 0)  -->
<svg version="1.1"
	 id="svg8" xmlns:dc="http://purl.org/dc/elements/1.1/" xmlns:cc="http://creativecommons.org/ns#" xmlns:svg="http://www.w3.org/2000/svg" xmlns:inkscape="http://www.inkscape.org/namespaces/inkscape" xmlns:rdf="http://www.w3.org/1999/02/22-rdf-syntax-ns#" xmlns:sodipodi="http://sodipodi.sourceforge.net/DTD/sodipodi-0.dtd" inkscape:version="1.1-dev (60faa23, 2020-06-06)" sodipodi:docname="CLUB-13-KING.svg"
	 xmlns="http://www.w3.org/2000/svg" xmlns:xlink="http://www.w3.org/1999/xlink" x="0px" y="0px" width="238.1px" height="332.6px"
	 viewBox="0 0 238.1 332.6" style="enable-background:new 0 0 238.1 332.6;" xml:space="preserve">
<style type="text/css">
	.st0{fill:#006614;}
	.st1{fill:#FFFFFF;}
	.st2{fill:#800000;}
</style>
<sodipodi:namedview  bordercolor="#666666" borderopacity="1" gridtolerance="10" guidetolerance="10" id="namedview26" inkscape:current-layer="svg8" inkscape:cx="137.16934" inkscape:cy="-116.91906" inkscape:pageopacity="0" inkscape:pageshadow="2" inkscape:window-height="485" inkscape:window-maximized="0" inkscape:window-width="774" inkscape:window-x="0" inkscape:window-y="0" inkscape:zoom="0.14149939" objecttolerance="10" pagecolor="#ffffff" showgrid="false">
	</sodipodi:namedview>
<g id="g862" transform="translate(-346.27453,116.5794)" sodipodi:insensitive="true">
	<path id="rect22845-2" class="st0" d="M-42.7-759.8H985.6c59.8,0,108.4,41.9,108.4,93.5v408.8c0,51.6-48.5,93.5-108.4,93.5H-42.7
		c-59.8,0-108.4-41.9-108.4-93.5v-408.8C-151-718-102.5-759.8-42.7-759.8z"/>
	<text transform="matrix(1 0 0 1 266.394 -689.4193)" class="st1" style="font-family:'ArialMT'; font-size:36px;">Single Playing Card from:</text>
	<text transform="matrix(1 0 0 1 151.3188 -644.4193)" class="st1" style="font-family:'ArialMT'; font-size:36px;">Standard Edition - Color Set - Bordered </text>
	<text transform="matrix(1 0 0 1 -42.7085 -559.4193)" style="fill:#FFAAAA; font-family:'ArialMT'; font-size:36px;">Copyright 2011, 2020 - Chris Aguilar - conjurenation@gmail.com</text>
	<text transform="matrix(1 0 0 1 -12.7554 -474.4193)" class="st1" style="font-family:'ArialMT'; font-size:36px;">https://totalnonsense.com/open-source-vector-playing-cards/</text>
	<text transform="matrix(1 0 0 1 342.393 -389.4193)" style="fill:#FFAAAA; font-family:'ArialMT'; font-size:36px;">Licensed under:</text>
	<text transform="matrix(1 0 0 1 395.101 -344.4193)" style="fill:#FFAAAA; font-family:'ArialMT'; font-size:36px;">LGPL 3.0</text>
	<text transform="matrix(1 0 0 1 139.3305 -299.4193)" style="fill:#FFAAAA; font-family:'ArialMT'; font-size:36px;">https://www.gnu.org/licenses/lgpl-3.0.html</text>
	<text transform="matrix(1 0 0 1 165.3989 -214.4193)" class="st1" style="font-family:'ArialMT'; font-size:36px;">Each Card Measures (63mm x 88mm)</text>
</g>
<g>
	<g id="g12852" transform="translate(553.26378,446.82489)">
		<g>
			<g>
				<path class="st1" d="M-326.5-446.8h-215.4c-6.3,0-11.3,5.1-11.3,11.3v309.9c0,6.3,5.1,11.3,11.3,11.3h215.4
					c6.3,0,11.3-5.1,11.3-11.3v-309.9C-315.1-441.8-320.2-446.8-326.5-446.8z M-330.3-139.6c0,5.7-4.4,10.3-9.9,10.3h-188.1
					c-5.5,0-9.9-4.6-9.9-10.3v-281.8c0-5.7,4.4-10.3,9.9-10.3h188.1c5.5,0,9.9,4.6,9.9,10.3V-139.6z"/>
				<path class="st2" d="M-340.2-431.7h-188.1c-5.5,0-9.9,4.6-9.9,10.3v281.8c0,5.7,4.4,10.3,9.9,10.3h188.1c5.5,0,9.9-4.6,9.9-10.3
					v-281.8C-330.3-427.1-334.7-431.7-340.2-431.7z"/>
			</g>
		</g>
	</g>
	<g id="path12850_00000125580267192650408200000017456330149584653235_">
		<path class="st1" d="M209.1,306.8c-0.8,0-1.5-0.5-1.7-1.3C189.3,249.1,173,205.1,159,171c-12,28.4-22.3,49.5-30.8,65.1
			c11.2,21.1,23.8,42.2,37.5,62.9c0.6,0.8,0.3,2-0.5,2.5c-0.8,0.6-2,0.3-2.5-0.5c-13.3-20.1-25.5-40.5-36.5-61.1
			c-1.9,3.4-3.7,6.5-5.4,9.3l-1.6,2.6l-1.6-2.6c-1.7-2.8-3.5-5.9-5.4-9.3c-11,20.5-23.3,41-36.5,61.1c-0.6,0.8-1.7,1.1-2.5,0.5
			c-0.8-0.6-1.1-1.7-0.5-2.5c13.7-20.6,26.2-41.7,37.5-62.9c-8.5-15.6-18.9-36.7-30.8-65.1c-14.1,34.1-30.3,78-48.4,134.5
			c-0.3,1-1.3,1.5-2.3,1.2c-1-0.3-1.5-1.3-1.2-2.3C46,246,62.8,201,77.2,166.3C62.7,131.6,46,86.6,27.3,28.2c-0.3-1,0.2-2,1.2-2.3
			c1-0.3,2,0.2,2.3,1.2c18.1,56.4,34.4,100.4,48.4,134.5c12-28.4,22.3-49.5,30.8-65.1C98.7,75.4,86.2,54.3,72.5,33.6
			c-0.6-0.8-0.3-2,0.5-2.5c0.8-0.6,2-0.3,2.5,0.5c13.3,20.1,25.5,40.5,36.5,61.1c1.9-3.4,3.7-6.5,5.4-9.3l1.6-2.6l1.6,2.6
			c1.7,2.8,3.5,5.9,5.4,9.3c11-20.5,23.3-41,36.5-61.1c0.6-0.8,1.7-1.1,2.5-0.5c0.8,0.6,1.1,1.7,0.5,2.5
			c-13.7,20.6-26.2,41.7-37.5,62.9c8.5,15.6,18.9,36.7,30.8,65.1c14.1-34.1,30.3-78,48.4-134.5c0.3-1,1.3-1.5,2.3-1.2
			c1,0.3,1.5,1.3,1.2,2.3c-18.8,58.4-35.5,103.4-49.9,138.1c14.4,34.7,31.2,79.7,49.9,138.1c0.3,1-0.2,2-1.2,2.3
			C209.5,306.7,209.3,306.8,209.1,306.8z M114.1,236.1c1.7,3.1,3.4,6,4.9,8.6c1.6-2.7,3.2-5.5,4.9-8.6c-1.7-3.2-3.3-6.3-4.9-9.5
			C117.4,229.8,115.8,232.9,114.1,236.1z M119.1,218.5l1.6,3.2c1.8,3.5,3.6,7,5.4,10.5c8.6-15.9,18.9-37.3,30.9-65.9
			c-12-28.6-22.3-50-30.9-65.9c-1.8,3.5-3.6,7-5.4,10.5l-1.6,3.2l-1.6-3.2c-1.8-3.5-3.6-7-5.4-10.5c-8.6,15.9-18.9,37.3-30.9,65.9
			c12,28.6,22.3,50,30.9,65.9c1.8-3.5,3.6-7,5.4-10.5L119.1,218.5z M114.1,96.5c1.7,3.2,3.3,6.3,4.9,9.5c1.6-3.2,3.3-6.3,4.9-9.5
			c-1.7-3.1-3.4-6-4.9-8.6C117.5,90.5,115.9,93.4,114.1,96.5z"/>
	</g>
</g>
</svg>
