<?xml version="1.0" encoding="utf-8"?>
<!-- Generator: Adobe Illustrator 27.2.0, SVG Export Plug-In . SVG Version: 6.00 Build 0)  -->
<svg version="1.1" id="Layer_1" xmlns="http://www.w3.org/2000/svg" xmlns:xlink="http://www.w3.org/1999/xlink" x="0px" y="0px"
	 viewBox="0 0 178.58 249.45" style="enable-background:new 0 0 178.58 249.45;" xml:space="preserve">
<style type="text/css">
	.st0{fill:#FFFFFF;}
	.st1{fill:#800000;}
</style>
<g id="g12852" transform="translate(553.26378,446.82489)">
	<g>
		<g>
			<path class="st0" d="M-383.19-446.82h-161.57c-4.7,0-8.5,3.81-8.5,8.5v232.44c0,4.7,3.81,8.5,8.5,8.5h161.57
				c4.7,0,8.5-3.81,8.5-8.5v-232.44C-374.68-443.02-378.49-446.82-383.19-446.82z M-386.02-216.45c0,4.27-3.32,7.73-7.42,7.73
				H-534.5c-4.1,0-7.42-3.46-7.42-7.73v-211.31c0-4.27,3.32-7.73,7.42-7.73h141.06c4.1,0,7.42,3.46,7.42,7.73V-216.45z"/>
			<path class="st1" d="M-393.44-435.49H-534.5c-4.1,0-7.42,3.46-7.42,7.73v211.31c0,4.27,3.32,7.73,7.42,7.73h141.06
				c4.1,0,7.42-3.46,7.42-7.73v-211.31C-386.02-432.03-389.34-435.49-393.44-435.49z"/>
		</g>
	</g>
</g>
<g id="path12850_00000125580267192650408200000017456330149584653235_">
	<path class="st0" d="M156.84,230.07c-0.58,0-1.12-0.37-1.3-0.95c-13.6-42.33-25.77-75.28-36.33-100.85
		c-8.98,21.28-16.72,37.1-23.12,48.8c8.43,15.86,17.86,31.67,28.12,47.15c0.42,0.63,0.24,1.48-0.39,1.9
		c-0.63,0.42-1.48,0.25-1.9-0.39c-9.96-15.05-19.15-30.41-27.41-45.81c-1.42,2.54-2.77,4.86-4.05,6.99l-1.17,1.96l-1.17-1.96
		c-1.28-2.13-2.63-4.45-4.05-6.99c-8.26,15.41-17.45,30.77-27.41,45.81c-0.42,0.63-1.27,0.8-1.9,0.39c-0.63-0.42-0.8-1.27-0.38-1.9
		c10.25-15.48,19.68-31.3,28.12-47.15c-6.4-11.7-14.14-27.53-23.12-48.8c-10.55,25.57-22.72,58.52-36.33,100.85
		c-0.23,0.72-1,1.12-1.72,0.88c-0.72-0.23-1.11-1-0.88-1.72c14.07-43.79,26.62-77.57,37.44-103.56
		C47.06,98.73,34.51,64.95,20.44,21.16c-0.23-0.72,0.16-1.49,0.88-1.72c0.72-0.23,1.49,0.16,1.72,0.88
		c13.6,42.33,25.77,75.28,36.33,100.85c8.98-21.28,16.72-37.1,23.12-48.8C74.06,56.52,64.63,40.7,54.38,25.22
		c-0.42-0.63-0.24-1.48,0.38-1.9c0.63-0.42,1.48-0.24,1.9,0.38c9.96,15.05,19.15,30.41,27.41,45.81c1.42-2.54,2.77-4.86,4.05-6.99
		l1.17-1.96l1.17,1.96c1.28,2.13,2.63,4.45,4.05,6.99c8.26-15.41,17.45-30.77,27.41-45.81c0.42-0.63,1.27-0.8,1.9-0.38
		c0.63,0.42,0.8,1.27,0.39,1.9c-10.25,15.48-19.68,31.3-28.12,47.15c6.4,11.7,14.14,27.53,23.12,48.8
		c10.55-25.57,22.72-58.52,36.33-100.85c0.23-0.72,1-1.11,1.72-0.88c0.72,0.23,1.12,1,0.88,1.72
		c-14.07,43.79-26.62,77.57-37.44,103.56c10.82,25.99,23.37,59.78,37.44,103.56c0.23,0.72-0.16,1.49-0.88,1.72
		C157.12,230.05,156.98,230.07,156.84,230.07z M85.6,177.05c1.29,2.33,2.52,4.49,3.69,6.48c1.17-2,2.4-4.15,3.69-6.48
		c-1.25-2.37-2.48-4.74-3.69-7.11C88.08,172.31,86.85,174.68,85.6,177.05z M89.29,163.87l1.22,2.43c1.32,2.62,2.67,5.25,4.04,7.87
		c6.44-11.93,14.21-27.98,23.18-49.45c-8.97-21.47-16.74-37.52-23.18-49.45c-1.38,2.62-2.72,5.25-4.04,7.87l-1.22,2.43l-1.22-2.43
		c-1.32-2.62-2.67-5.25-4.04-7.87c-6.44,11.93-14.21,27.98-23.18,49.45c8.97,21.47,16.74,37.52,23.18,49.45
		c1.38-2.62,2.72-5.25,4.04-7.87L89.29,163.87z M85.6,72.4c1.25,2.37,2.48,4.74,3.69,7.11c1.21-2.37,2.44-4.74,3.69-7.11
		c-1.29-2.33-2.52-4.48-3.69-6.48C88.12,67.91,86.89,70.07,85.6,72.4z"/>
</g>
</svg>
