<?xml version="1.0" encoding="utf-8"?>
<!-- Generator: Adobe Illustrator 27.4.0, SVG Export Plug-In . SVG Version: 6.00 Build 0)  -->
<svg version="1.1" id="Layer_1" xmlns="http://www.w3.org/2000/svg" xmlns:xlink="http://www.w3.org/1999/xlink" x="0px" y="0px"
	 width="238.1px" height="332.6px" viewBox="0 0 238.1 332.6" style="enable-background:new 0 0 238.1 332.6;" xml:space="preserve"
	>
<style type="text/css">
	.st0{opacity:0.26;fill:#F9F9F9;enable-background:new    ;}
	.st1{fill:#1A2A2D;}
	.st2{fill:#E5DFDF;}
</style>
<path class="st0" d="M228.2,332.6H9.7c-5.3,0-9.7-4.3-9.7-9.7V9.9c0-5.3,4.3-9.7,9.7-9.7h218.6c5.3,0,9.7,4.3,9.7,9.7v313
	C238,328.3,233.5,332.6,228.2,332.6z"/>
<rect x="10.9" y="140.5" class="st1" width="216.2" height="109.9"/>
<path class="st2" d="M154.8,228.4c1.1,1.8,1.6,4.2,1.6,7.2c0,5.3-1.2,9.8-3.7,13.6c-4.1,6.3-9.4,11.2-16.1,14.7
	c-6.6,3.5-14.5,5.3-23.7,5.3c-14,0-24.9-4.2-32.6-12.6c-7.7-8.4-11.6-19.7-11.6-34c0-10.1,2.1-19.4,6.3-28.1
	c4.2-8.7,10.1-15.6,17.6-20.7c7.5-5.1,16-7.7,25.5-7.7c8.5,0,15.2,2.5,20.3,7.5c5.1,5,7.7,11.9,7.7,20.5c0,10.1-3.6,18.7-10.8,25.9
	c-7.2,7.2-19.5,12.9-36.9,17.2c3.5,6.7,9.4,10.1,17.7,10.1c6,0,10.9-1.4,14.8-4.2c3.9-2.8,8.3-7.4,13.5-14c1.8-2.2,3.7-3.3,5.9-3.3
	C152.2,225.7,153.7,226.6,154.8,228.4z M87.3,147.7c-2.6-2.6-3.9-6.5-3.9-11.9c0-5.8,1.6-10.4,4.7-13.7c3.1-3.3,7.3-4.9,12.6-4.9
	c4.7,0,8.3,1.3,10.9,3.8c2.6,2.6,3.9,6.5,3.9,11.9c0,5.8-1.6,10.4-4.7,13.7c-3.1,3.3-7.3,4.9-12.6,4.9
	C93.5,151.6,89.9,150.3,87.3,147.7z M100.7,196.9c-3.7,6.3-5.6,13.9-5.6,22.8v0.4c8.6-2,15.4-5.1,20.3-9.2c5-4.1,7.4-8.8,7.4-14.2
	c0-2.8-0.8-5-2.3-6.7c-1.5-1.7-3.6-2.5-6.2-2.5C109,187.4,104.4,190.6,100.7,196.9z M132.8,147.7c-2.6-2.6-3.9-6.5-3.9-11.9
	c0-5.8,1.6-10.4,4.7-13.7c3.1-3.3,7.3-4.9,12.6-4.9c4.7,0,8.3,1.3,10.9,3.8c2.6,2.6,3.9,6.5,3.9,11.9c0,5.8-1.6,10.4-4.7,13.7
	c-3.1,3.3-7.3,4.9-12.6,4.9C139,151.6,135.4,150.3,132.8,147.7z"/>
</svg>
