<?xml version="1.0" encoding="utf-8"?>
<!-- Generator: Adobe Illustrator 27.4.0, SVG Export Plug-In . SVG Version: 6.00 Build 0)  -->
<svg version="1.1" id="Layer_1" xmlns="http://www.w3.org/2000/svg" xmlns:xlink="http://www.w3.org/1999/xlink" x="0px" y="0px"
	 width="238.1px" height="332.6px" viewBox="0 0 238.1 332.6" style="enable-background:new 0 0 238.1 332.6;" xml:space="preserve"
	>
<style type="text/css">
	.st0{opacity:0.26;fill:#F9F9F9;enable-background:new    ;}
	.st1{fill:#1A2A2D;}
	.st2{fill:#E5DFDF;}
</style>
<path class="st0" d="M228.2,332.6H9.7c-5.3,0-9.7-4.3-9.7-9.7V9.9c0-5.3,4.3-9.7,9.7-9.7h218.6c5.3,0,9.7,4.3,9.7,9.7v313
	C238,328.3,233.5,332.6,228.2,332.6z"/>
<rect x="10.9" y="140.5" class="st1" width="216.2" height="109.9"/>
<path class="st2" d="M152.2,254.6c0.6,1.9,0.9,3.9,0.9,5.9c0,6.6-4,9.8-12,9.8c-4.5,0-8-1.2-10.4-3.7c-2.4-2.5-4.6-7.1-6.7-14
	l-0.2-0.9c-5.5,6.9-10.5,11.5-15,13.8c-4.5,2.3-9.6,3.5-15.4,3.5c-8.9,0-16.2-3.3-22-10c-5.8-6.6-8.6-15.3-8.6-25.9
	c0-11.7,2.5-22.5,7.4-32.4c5-9.9,11.7-18.1,20.3-24.4c8.6-6.3,18.2-10.2,28.9-11.5c2.8-27.6,8.1-51.6,15.9-72
	c7.8-20.4,18.2-30.6,31.2-30.6c6.3,0,11.5,2.8,15.6,8.5c4.2,5.7,6.2,14.3,6.2,25.8c0,16-3.9,34.8-11.8,56.2
	c-7.9,21.4-18.3,43.5-31.3,66.3C146.8,231.1,149.1,242.9,152.2,254.6z M109.4,243.7c2.7-2.2,6.2-6.4,10.4-12.7
	c-1.5-10.6-2.2-21.7-2.2-33c0-4.5,0.1-8,0.2-10.5c-8,2.3-14.7,7.7-19.9,16c-5.3,8.3-7.9,17.5-7.9,27.6c0,10.6,3.6,16,10.9,16
	C103.9,247,106.7,245.9,109.4,243.7z M152.1,116.1c-3.7,21.6-6.2,45.1-7.5,70.5c16.2-35,24.3-63.5,24.3-85.3c0-5.5-0.5-9.8-1.4-12.9
	c-1-3.1-2.1-4.6-3.4-4.6C159.8,83.7,155.8,94.5,152.1,116.1z"/>
</svg>
