<?xml version="1.0" encoding="utf-8"?>
<!-- Generator: Adobe Illustrator 27.4.0, SVG Export Plug-In . SVG Version: 6.00 Build 0)  -->
<svg version="1.1" id="Layer_1" xmlns="http://www.w3.org/2000/svg" xmlns:xlink="http://www.w3.org/1999/xlink" x="0px" y="0px"
	 width="238.1px" height="332.6px" viewBox="0 0 238.1 332.6" style="enable-background:new 0 0 238.1 332.6;" xml:space="preserve"
	>
<style type="text/css">
	.st0{opacity:0.26;fill:#F9F9F9;enable-background:new    ;}
	.st1{fill:#1A2A2D;}
	.st2{fill:#E5DFDF;}
</style>
<path class="st0" d="M228.2,332.6H9.7c-5.3,0-9.7-4.3-9.7-9.7V9.9c0-5.3,4.3-9.7,9.7-9.7h218.6c5.3,0,9.7,4.3,9.7,9.7v313
	C238,328.3,233.5,332.6,228.2,332.6z"/>
<rect x="11.2" y="140.5" class="st1" width="216.2" height="109.9"/>
<g>
	<path class="st2" d="M150.2,255.1c0,3.6-1.6,6.9-4.9,9.7c-3.3,2.8-8,4.3-14.1,4.3c-10.5,0-19.1-3.2-25.7-9.7
		c-6.6-6.5-10-15-10-25.5c0-5.7,2.9-9.8,8.8-12.3c6.4-2.8,11-5.7,13.8-8.9c2.8-3.1,4.2-7,4.2-11.5c0-2.6-0.5-4.6-1.6-5.9
		c-1.1-1.3-2.4-2-4-2c-3.9,0-8.3,2.8-13,8.5c-4.7,5.7-9.2,13-13.2,22c-4.1,9-7.3,18.2-9.6,27.7c-1.6,6.9-3.5,11.5-5.6,13.9
		c-2.1,2.4-5.4,3.6-10,3.6c-4.5,0-7.8-1.6-10-4.9c-2.1-3.3-3.5-8.3-4.3-15.2c-0.7-6.9-1.1-16.9-1.1-30.2c0-22.5,2.3-45.9,6.9-70.2
		c4.6-24.4,11.4-44.8,20.3-61.4c9-16.6,19.7-24.8,32.3-24.8c6.7,0,12.1,2.9,16.3,8.6c4.2,5.8,6.2,13.2,6.2,22.4
		c0,14.7-4.3,30-12.9,45.8c-8.6,15.8-22.6,34.3-42,55.5c-0.4,7.6-0.7,15.4-0.7,23.4c7-18.2,15-31.5,24.1-39.7
		c9-8.2,17.5-12.4,25.4-12.4c7.3,0,13.2,2.5,17.6,7.4c4.4,5,6.7,11.1,6.7,18.4c0,8-2,15.4-6.1,22.1c-4.1,6.7-11.1,12.7-21,17.9
		c0.9,4.4,2.7,7.4,5.4,9.1c2.7,1.7,7,3.1,13,4.3C147.2,246.4,150.2,249.7,150.2,255.1z M96,95.2c-3.2,7.5-6.3,17.7-9.3,30.4
		c-3,12.8-5.4,26.7-7.3,41.7c9-10.6,16.5-22.2,22.4-34.8c5.9-12.5,8.9-23.9,8.9-34.1c0-4.7-0.5-8.2-1.5-10.7c-1-2.5-2.5-3.7-4.4-3.7
		C102.1,84,99.2,87.7,96,95.2z"/>
</g>
</svg>
