<?xml version="1.0" encoding="utf-8"?>
<!-- Generator: Adobe Illustrator 27.4.0, SVG Export Plug-In . SVG Version: 6.00 Build 0)  -->
<svg version="1.1" id="Layer_1" xmlns="http://www.w3.org/2000/svg" xmlns:xlink="http://www.w3.org/1999/xlink" x="0px" y="0px"
	 width="238.1px" height="332.6px" viewBox="0 0 238.1 332.6" style="enable-background:new 0 0 238.1 332.6;" xml:space="preserve"
	>
<style type="text/css">
	.st0{opacity:0.26;fill:#F9F9F9;enable-background:new    ;}
	.st1{fill:#1A2A2D;}
	.st2{fill:#E5DFDF;}
</style>
<path class="st0" d="M228.2,332.5H9.8c-5.3,0-9.7-4.3-9.7-9.7V9.8c0-5.3,4.3-9.7,9.7-9.7h218.6c5.3,0,9.7,4.3,9.7,9.7v313
	C238.1,328.2,233.6,332.5,228.2,332.5z"/>
<rect x="10.9" y="140.4" class="st1" width="216.2" height="109.9"/>
<g>
	<path class="st2" d="M161.4,199.3c2.3,2.3,3.4,5.1,3.4,8.4c0,1.9-0.4,3.9-1.3,6.1c-2.3,5.4-5.6,9.9-9.8,13.6
		c-4.2,3.6-8.9,5.5-14,5.5c-4.1,0-7.5-1.5-10.4-4.4c-2.8-2.9-4.3-6.9-4.3-11.8c0-2.8,0.1-5.8,0.4-9c0.3-2.3,0.4-3.9,0.4-4.8
		c0-1.2-0.3-2-0.8-2.6c-0.5-0.6-1.1-0.9-1.9-0.9c-2,0-4.8,2.4-8.3,7.3c-3.5,4.9-7,11.3-10.5,19.4c-3.5,8-6.3,16.5-8.5,25.4
		c-1.6,7-3.4,11.7-5.5,14c-2,2.3-5.4,3.5-10.1,3.5c-5.5,0-9.4-2.9-11.7-8.8c-2.3-5.8-3.4-15.2-3.4-28c0-19,2.7-37,8.1-54
		c1.3-4.2,3.5-7.3,6.5-9.3c3-2,7.2-3,12.6-3c2.9,0,5,0.4,6.1,1.1c1.2,0.7,1.8,2.1,1.8,4.2c0,2.3-1.1,7.6-3.3,15.8
		c-1.5,5.8-2.6,10.9-3.5,15.3c-0.9,4.4-1.6,9.8-2.2,16.2c4.8-12.5,10.2-22.8,16.2-30.6c6-7.9,11.8-13.5,17.5-16.8
		c5.7-3.4,10.9-5,15.5-5c4.2,0,7.5,1.2,9.7,3.6c2.3,2.4,3.4,5.9,3.4,10.6c0,2.8-0.8,8-2.4,15.8h2C156.4,195.9,159.1,197,161.4,199.3
		z"/>
	<path class="st2" d="M160.3,172.6c-1.9-1.5-2.8-3.8-2.8-7c0-1.3,0.2-2.8,0.7-4.6c1.6-6.7,2.8-12.9,3.6-18.6c0.8-5.7,1.2-12,1.2-19
		c0-7.3,1.7-12.9,5.1-16.8c3.4-3.9,7.8-5.9,13.2-5.9c5.3,0,9.2,1.4,11.9,4.3c2.7,2.8,4,6.7,4,11.5c0,5.1-1.5,11.9-4.6,20.3
		c-3.1,8.5-6.8,16.7-11.2,24.7c-2.9,5.4-5.2,9-6.9,10.7c-1.7,1.8-3.9,2.6-6.7,2.6C164.7,174.8,162.2,174,160.3,172.6z"/>
</g>
</svg>
