<?xml version="1.0" encoding="utf-8"?>
<!-- Generator: Adobe Illustrator 27.4.0, SVG Export Plug-In . SVG Version: 6.00 Build 0)  -->
<svg version="1.1" id="Layer_1" xmlns="http://www.w3.org/2000/svg" xmlns:xlink="http://www.w3.org/1999/xlink" x="0px" y="0px"
	 width="238.1px" height="332.6px" viewBox="0 0 238.1 332.6" style="enable-background:new 0 0 238.1 332.6;" xml:space="preserve"
	>
<style type="text/css">
	.st0{opacity:0.26;fill:#F9F9F9;enable-background:new    ;}
	.st1{fill:#1A2A2D;}
	.st2{fill:#E5DFDF;}
</style>
<path class="st0" d="M228.3,332.5H9.8c-5.3,0-9.7-4.3-9.7-9.7V9.8c0-5.3,4.3-9.7,9.7-9.7h218.6c5.3,0,9.7,4.3,9.7,9.7v313
	C238.1,328.2,233.6,332.5,228.3,332.5z"/>
<path class="st0" d="M228.2,332.6H9.7c-5.3,0-9.7-4.3-9.7-9.7V9.9c0-5.3,4.3-9.7,9.7-9.7h218.6c5.3,0,9.7,4.3,9.7,9.7v313
	C238,328.3,233.5,332.6,228.2,332.6z"/>
<rect x="10.9" y="140.5" class="st1" width="216.2" height="109.9"/>
<path class="st2" d="M77.9,260.3c-2.3-5.8-3.4-15.2-3.4-28c0-19,2.7-37,8.1-54c1.3-4.2,3.5-7.3,6.5-9.3c3-2,7.2-3,12.6-3
	c2.9,0,5,0.4,6.1,1.1c1.2,0.7,1.8,2.1,1.8,4.2c0,2.3-1.1,7.6-3.3,15.8c-1.5,5.8-2.6,10.9-3.5,15.3c-0.9,4.4-1.6,9.8-2.2,16.2
	c4.8-12.5,10.2-22.8,16.2-30.6c6-7.9,11.8-13.5,17.6-16.8c5.8-3.4,11-5,15.9-5c4.7,0,8.2,1.2,10.6,3.6c2.4,2.4,3.6,5.9,3.6,10.6
	c0,3.8-0.8,10.9-2.4,21.4c-1.5,8.9-2.6,17.3-3.5,25.3c-0.9,8-1.3,16.8-1.3,26.6c0,5.5-1.1,9.5-3.4,11.9c-2.3,2.4-5.9,3.6-11,3.6
	c-4.8,0-8.3-1.2-10.5-3.7c-2.2-2.5-3.3-6.2-3.3-11.2c0-5.8,1-15.5,3.1-28.9c1.8-11.7,2.6-19.1,2.6-22.3c0-2.3-0.8-3.5-2.4-3.5
	c-1.9,0-4.6,2.4-8,7.3c-3.4,4.9-6.9,11.3-10.5,19.4c-3.6,8-6.5,16.5-8.6,25.4c-1.6,6.9-3.5,11.5-5.6,13.9c-2.1,2.4-5.4,3.6-10,3.6
	C84.1,269.1,80.2,266.1,77.9,260.3z"/>
</svg>
