<?xml version="1.0" encoding="utf-8"?>
<!-- Generator: Adobe Illustrator 27.4.0, SVG Export Plug-In . SVG Version: 6.00 Build 0)  -->
<svg version="1.1" id="Layer_1" xmlns="http://www.w3.org/2000/svg" xmlns:xlink="http://www.w3.org/1999/xlink" x="0px" y="0px"
	 width="238.1px" height="332.6px" viewBox="0 0 238.1 332.6" style="enable-background:new 0 0 238.1 332.6;" xml:space="preserve"
	>
<style type="text/css">
	.st0{opacity:0.26;fill:#F9F9F9;enable-background:new    ;}
	.st1{fill:#1A2A2D;}
	.st2{fill:#E5DFDF;}
</style>
<path class="st0" d="M228.2,332.6H9.7c-5.3,0-9.7-4.3-9.7-9.7V9.9c0-5.3,4.3-9.7,9.7-9.7h218.6c5.3,0,9.7,4.3,9.7,9.7v313
	C238,328.3,233.5,332.6,228.2,332.6z"/>
<rect x="10.9" y="140.5" class="st1" width="216.2" height="109.9"/>
<path class="st2" d="M100.7,262.6c-6.1-4.3-10.6-10-13.7-17c-3.1-7-4.6-14.5-4.6-22.5c0-11.1,2.1-21,6.2-29.6
	c4.2-8.7,9.8-15.5,17-20.3c7.1-4.9,15.2-7.3,24.1-7.3c8.6,0,16,2.2,22.1,6.5c6.1,4.3,10.7,10,13.8,17c3.1,7,4.6,14.5,4.6,22.5
	c0,11.1-2.1,21-6.3,29.6c-4.2,8.7-10,15.5-17.2,20.3c-7.2,4.9-15.2,7.3-24,7.3C114.1,269.1,106.8,266.9,100.7,262.6z M137.7,237.3
	c3.4-5.4,5.1-13.3,5.1-23.6c0-8-1.5-14.1-4.4-18.2c-2.9-4.1-6.4-6.1-10.5-6.1c-5.3,0-9.6,2.7-13,8c-3.4,5.3-5.1,13.2-5.1,23.7
	c0,8.3,1.5,14.4,4.4,18.4c2.9,3.9,6.6,5.9,10.9,5.9C130.1,245.4,134.3,242.7,137.7,237.3z"/>
</svg>
