<?xml version="1.0" encoding="utf-8"?>
<!-- Generator: Adobe Illustrator 27.4.0, SVG Export Plug-In . SVG Version: 6.00 Build 0)  -->
<svg version="1.1" id="Layer_1" xmlns="http://www.w3.org/2000/svg" xmlns:xlink="http://www.w3.org/1999/xlink" x="0px" y="0px"
	 width="238.1px" height="332.6px" viewBox="0 0 238.1 332.6" style="enable-background:new 0 0 238.1 332.6;" xml:space="preserve"
	>
<style type="text/css">
	.st0{opacity:0.26;fill:#F9F9F9;enable-background:new    ;}
	.st1{fill:#1A2A2D;}
	.st2{fill:#E5DFDF;}
</style>
<path class="st0" d="M228.2,332.6H9.7c-5.3,0-9.7-4.3-9.7-9.7V9.9c0-5.3,4.3-9.7,9.7-9.7h218.6c5.3,0,9.7,4.3,9.7,9.7v313
	C238,328.3,233.5,332.6,228.2,332.6z"/>
<rect x="10.9" y="140.5" class="st1" width="216.2" height="109.9"/>
<path class="st2" d="M218.6,91c2.3,2.2,3.4,4.7,3.4,7.7c0,4.8-1.4,8.3-4,10.5c-2.7,2.2-7,3.1-12.8,2.6c-13.1-1-23.4-1.7-30.7-2.1
	c-7.4-0.4-17-0.6-29-0.8c-5.4,26.8-10.4,53.8-14.9,81c-1.6,9.9-3.3,21.4-5,34.5c-1.8,13.1-2.9,23.6-3.5,31.6c-0.3,4.2-2,7.5-5.3,9.7
	c-3.2,2.3-7.1,3.4-11.6,3.4c-4.8,0-8.5-1.2-11.2-3.5c-2.6-2.3-3.9-5.4-3.9-9.2c0-3.5,0.5-9.3,1.6-17.4c1.1-8.1,2.4-16.6,3.8-25.5
	c1.6-8.9,2.8-16.6,3.7-23.2c1.6-11.1,3.4-22.1,5.5-33c2-10.9,4.1-21.3,6.1-31.1c0.4-2.2,0.9-4.7,1.5-7.5c0.6-2.8,1.2-6,2-9.5
	c-14.3,0.4-25.5,1.6-33.7,3.5c-8.2,1.9-14,4.6-17.4,8c-3.4,3.4-5.1,7.8-5.1,13.2c0,5,1.5,9.7,4.4,14.2c0.6,1,0.9,2.1,0.9,3.3
	c0,2.8-1.6,5.4-4.9,7.8c-3.3,2.4-6.7,3.6-10.2,3.6c-2.5,0-4.5-0.7-6.1-2.2c-2.9-2.5-5.3-6-7.2-10.6c-1.9-4.6-2.8-9.8-2.8-15.6
	c0-12.4,4-22.4,12.1-29.9c8.1-7.5,20.4-13,37-16.5c16.6-3.5,37.8-5.3,63.8-5.3c16,0,28.8,0.3,38.4,0.9c9.6,0.6,17.9,1.5,25.1,2.8
	C212.9,87.2,216.3,88.8,218.6,91z"/>
</svg>
