<?xml version="1.0" encoding="utf-8"?>
<!-- Generator: Adobe Illustrator 27.3.1, SVG Export Plug-In . SVG Version: 6.00 Build 0)  -->
<svg version="1.1" id="Layer_1" xmlns="http://www.w3.org/2000/svg" xmlns:xlink="http://www.w3.org/1999/xlink" x="0px" y="0px"
	 width="238.1px" height="332.6px" viewBox="0 0 238.1 332.6" style="enable-background:new 0 0 238.1 332.6;" xml:space="preserve"
	>
<style type="text/css">
	.st0{fill:#D8D8D8;}
</style>
<g id="g12852" transform="translate(553.26378,446.82489)">
	<g>
		<g>
			<g>
				<path class="st0" d="M-326.5-446.8h-17.3v5.3h17.3V-446.8L-326.5-446.8L-326.5-446.8z M-363.8-446.8h-17.3v5.3h17.3V-446.8
					L-363.8-446.8z M-401.1-446.8h-17.3v5.3h17.3V-446.8L-401.1-446.8z M-438.5-446.8h-17.3v5.3h17.3V-446.8L-438.5-446.8z
					 M-475.8-446.8h-17.3v5.3h17.3V-446.8L-475.8-446.8z M-513.1-446.8h-17.3v5.3h17.3V-446.8L-513.1-446.8z M-551-440.1
					c-0.1,0.1-0.1,0.1-0.3,0.3l0,0l0,0l0,0l0,0l0,0l0,0l0,0l0,0l0,0l0,0l0,0l0,0l0,0l0,0l0,0l0,0l0,0l0,0l0,0l0,0l0,0l0,0l0,0l0,0
					l0,0l0,0l0,0l0,0l0,0l0,0l0,0l0,0l0,0l0,0l0,0l0,0l0,0l0,0l0,0l0,0l0,0l0,0l0,0l0,0l0,0l0,0l0,0l0,0l0,0l0,0l0,0l0,0l0,0l0,0
					l0,0l0,0l0,0l0,0l0,0l0,0l0,0l0,0l0,0l0,0l0,0l0,0l0,0l0,0l0,0l0,0l0,0l0,0l0,0l0,0l0,0l0,0l0,0l0,0l0,0l0,0l0,0l0,0l0,0l0,0
					l0,0l0,0l0,0l0,0l0,0l0,0c0,0,0,0.1-0.1,0.1l0,0l0,0l0,0l0,0l0,0l0,0l0,0l0,0l0,0l0,0l0,0l0,0l0,0l0,0l0,0l0,0l0,0l0,0l0,0
					c-0.8,0.9-1.3,2-1.7,3.1l0,0l0,0l0,0l0,0l0,0l0,0l0,0l0,0l0,0l0,0l0,0l0,0l0,0c0,0.1-0.1,0.3-0.1,0.3l0,0l0,0l0,0l0,0l0,0l0,0
					l0,0l0,0l0,0l0,0l0,0l0,0l0,0l0,0l0,0l0,0l0,0l0,0l0,0l0,0l0,0l0,0l0,0l0,0l0,0l0,0l0,0l0,0l0,0v0.1l0,0l0,0l0,0l0,0l0,0l0,0
					l0,0l0,0l0,0l0,0l0,0l0,0l0,0l0,0l0,0l0,0l0,0l0,0l0,0l0,0l0,0l0,0l0,0l0,0l0,0l0,0l0,0l0,0l0,0l0,0l0,0l0,0l0,0l0,0l0,0l0,0
					l0,0v0.1l0,0l0,0l0,0l0,0l0,0l0,0l0,0l0,0l0,0l0,0l0,0l0,0l0,0l0,0l0,0l0,0l0,0l0,0l0,0l0,0l0,0l0,0l0,0l0,0l0,0l0,0l0,0l0,0
					l0,0l0,0l0,0l0,0l0,0l0,0l0,0l0,0l0,0l0,0l0,0l0,0l0,0l0,0l0,0l0,0l0,0l0,0l0,0l0,0l0,0l0,0l0,0l0,0l0,0l0,0l0,0l0,0l0,0l0,0
					l0,0l0,0l0,0l0,0l0,0l0,0l0,0l0,0l0,0l0,0l0,0l0,0l0,0l0,0l0,0l0,0l0,0l0,0l0,0l0,0l0,0l0,0l0,0l0,0l0,0l0,0l0,0l0,0l0,0l0,0
					l0,0l0,0l0,0l0,0l0,0l0,0l0,0l0,0l0,0l0,0l0,0l0,0l0,0l0,0l0,0l0,0l0,0l0,0l0,0l0,0l0,0l0,0l0,0l0,0l0,0l0,0l0,0l0,0l0,0l0,0
					l0,0l0,0l0,0l0,0l0,0l0,0l0,0l0,0l0,0l0,0l0,0l0,0l0,0l0,0l0,0l0,0l0,0l0,0l0,0l0,0l0,0c0,0,0,0,0,0.1l0,0l0,0l0,0l0,0l0,0l0,0
					l0,0l0,0l0,0l0,0l0,0l0,0l0,0l0,0l0,0l0,0l0,0l0,0l0,0l0,0l0,0l0,0l0,0l0,0l0,0l0,0l0,0l0,0l0,0l0,0l0,0l0,0l0,0l0,0l0,0l0,0
					l0,0l0,0l0,0l0,0l0,0l0,0l0,0l0,0l0,0l0,0l0,0l0,0l0,0l0,0l0,0l0,0l0,0l0,0l0,0l0,0l0,0l0,0l0,0l0,0l0,0l0,0l0,0l0,0l0,0l0,0
					l0,0l0,0l0,0l0,0l0,0l0,0l0,0l0,0l0,0l0,0l0,0l0,0l0,0l0,0l0,0l0,0l0,0l0,0l0,0l0,0l0,0l0,0l0,0l0,0l0,0l0,0l0,0l0,0l0,0l0,0
					l0,0l0,0l0,0l0,0l0,0l0,0l0,0l0,0l0,0l0,0l0,0l0,0l0,0l0,0l0,0l0,0l0,0l0,0l0,0l0,0l0,0l0,0l0,0l0,0l0,0l0,0l0,0l0,0l0,0l0,0
					l0,0l0,0l0,0l0,0l0,0l0,0l0,0l0,0l0,0l0,0l0,0l0,0l0,0l0,0l0,0l0,0l0,0l0,0l0,0l0,0l0,0l0,0l0,0l0,0l0,0l0,0l0,0v8.1h5.3v-8.1
					c0-1.7,0.7-3.2,1.9-4.4L-551-440.1L-551-440.1z M-547.9-407.4h-5.3v17.3h5.3V-407.4L-547.9-407.4z M-547.9-370h-5.3v17.3h5.3
					V-370L-547.9-370z M-547.9-332.7h-5.3v17.3h5.3V-332.7L-547.9-332.7z M-547.9-295.4h-5.3v17.3h5.3V-295.4L-547.9-295.4z
					 M-547.9-258h-5.3v17.3h5.3V-258L-547.9-258z M-547.9-220.7h-5.3v17.3h5.3V-220.7L-547.9-220.7z M-547.9-183.4h-5.3v17.3h5.3
					V-183.4L-547.9-183.4z M-547.9-146.1h-5.3v17.3h5.3V-146.1L-547.9-146.1z M-542.3-119.7l-0.4,5.3h0.1l0,0l0,0l0,0l0,0l0,0l0,0
					l0,0l0,0l0,0l0,0c0.1,0,0.4,0,0.5,0l0,0l0,0l0,0l0,0l0,0l0,0l0,0l0,0l0,0l0,0l0,0l0,0l0,0l0,0l0,0h16.4v-5.3h-16.4
					C-542.1-119.7-542.2-119.7-542.3-119.7L-542.3-119.7z M-488.2-119.7h-17.3v5.3h17.3V-119.7L-488.2-119.7z M-450.9-119.7h-17.3
					v5.3h17.3V-119.7L-450.9-119.7z M-413.5-119.7h-17.3v5.3h17.3V-119.7L-413.5-119.7z M-376.2-119.7h-17.3v5.3h17.3V-119.7
					L-376.2-119.7z M-338.9-119.7h-17.3v5.3h17.3V-119.7L-338.9-119.7z M-315.2-170.1h-5.3v17.3h5.3V-170.1L-315.2-170.1z
					 M-315.2-207.4h-5.3v17.3h5.3V-207.4L-315.2-207.4z M-315.2-244.7h-5.3v17.3h5.3V-244.7L-315.2-244.7z M-315.2-282h-5.3v17.3
					h5.3V-282L-315.2-282z M-315.2-319.4h-5.3v17.3h5.3V-319.4L-315.2-319.4z M-315.2-356.7h-5.3v17.3h5.3V-356.7L-315.2-356.7z
					 M-315.2-394h-5.3v17.3h5.3V-394L-315.2-394z M-315.2-431.4h-5.3v17.3h5.3V-431.4L-315.2-431.4z M-326.5-446.8v5.3
					c0.4,0,0.7,0,1.1,0.1l0.9-5.2c-0.5-0.1-0.9-0.1-1.5-0.1l0,0l0,0l0,0l0,0l0,0l0,0l0,0l0,0l0,0l0,0l0,0l0,0l0,0l0,0l0,0l0,0l0,0
					l0,0l0,0l0,0l0,0l0,0l0,0l0,0l0,0l0,0C-326.4-446.8-326.4-446.8-326.5-446.8C-326.4-446.8-326.4-446.8-326.5-446.8
					C-326.4-446.8-326.4-446.8-326.5-446.8C-326.4-446.8-326.4-446.8-326.5-446.8C-326.4-446.8-326.4-446.8-326.5-446.8
					C-326.4-446.8-326.4-446.8-326.5-446.8C-326.4-446.8-326.4-446.8-326.5-446.8C-326.4-446.8-326.4-446.8-326.5-446.8
					C-326.4-446.8-326.4-446.8-326.5-446.8C-326.4-446.8-326.4-446.8-326.5-446.8L-326.5-446.8L-326.5-446.8L-326.5-446.8
					L-326.5-446.8L-326.5-446.8L-326.5-446.8z M-317.4-121.4c0.1-0.1,0.1-0.1,0.3-0.3l0,0l0,0l0,0l0,0l0,0l0,0l0,0l0,0l0,0l0,0l0,0
					l0,0l0,0l0,0l0,0l0,0l0,0l0,0l0,0l0,0l0,0l0,0l0,0l0,0l0,0l0,0l0,0l0,0l0,0l0,0l0,0l0,0l0,0l0,0l0,0l0,0l0,0l0,0l0,0l0,0l0,0
					l0,0l0,0l0,0l0,0l0,0l0,0l0,0l0,0l0,0l0,0l0,0l0,0l0,0l0,0l0,0l0,0l0,0l0,0l0,0l0,0l0,0l0,0l0,0l0,0l0,0l0,0l0,0l0,0l0,0l0,0
					l0,0l0,0l0,0l0,0l0,0l0,0l0,0l0,0l0,0l0,0l0,0l0,0l0,0l0,0l0,0l0,0l0,0l0,0l0,0c0,0,0-0.1,0.1-0.1l0,0l0,0l0,0l0,0l0,0l0,0l0,0
					l0,0l0,0l0,0l0,0l0,0l0,0l0,0l0,0l0,0l0,0l0,0l0,0c0.8-0.9,1.3-2,1.7-3.1l0,0l0,0l0,0l0,0l0,0l0,0l0,0l0,0l0,0l0,0l0,0l0,0l0,0
					c0-0.1,0.1-0.3,0.1-0.3l0,0l0,0l0,0l0,0l0,0l0,0l0,0l0,0l0,0l0,0l0,0l0,0l0,0l0,0l0,0l0,0l0,0l0,0l0,0l0,0l0,0l0,0l0,0l0,0l0,0
					l0,0l0,0l0,0l0,0v-0.1l0,0l0,0l0,0l0,0l0,0l0,0l0,0l0,0l0,0l0,0l0,0l0,0l0,0l0,0l0,0l0,0l0,0l0,0l0,0l0,0l0,0l0,0l0,0l0,0l0,0
					l0,0l0,0l0,0l0,0l0,0l0,0l0,0l0,0l0,0l0,0l0,0l0,0v-0.1l0,0l0,0l0,0l0,0l0,0l0,0l0,0l0,0l0,0l0,0l0,0l0,0l0,0l0,0l0,0l0,0l0,0
					l0,0l0,0l0,0l0,0l0,0l0,0l0,0l0,0l0,0l0,0l0,0l0,0l0,0l0,0l0,0l0,0l0,0l0,0l0,0l0,0l0,0l0,0l0,0l0,0l0,0l0,0l0,0l0,0l0,0l0,0
					l0,0l0,0l0,0l0,0l0,0l0,0l0,0l0,0l0,0l0,0l0,0l0,0l0,0l0,0l0,0l0,0l0,0l0,0l0,0l0,0l0,0l0,0l0,0l0,0l0,0l0,0l0,0l0,0l0,0l0,0
					l0,0l0,0l0,0l0,0l0,0l0,0l0,0l0,0l0,0l0,0l0,0l0,0l0,0l0,0l0,0l0,0l0,0l0,0l0,0l0,0l0,0l0,0l0,0l0,0l0,0l0,0l0,0l0,0l0,0l0,0
					l0,0l0,0l0,0l0,0l0,0l0,0l0,0l0,0l0,0l0,0l0,0l0,0l0,0l0,0l0,0l0,0l0,0l0,0l0,0l0,0l0,0l0,0l0,0l0,0l0,0l0,0l0,0l0,0l0,0l0,0
					l0,0l0,0c0,0,0,0,0-0.1l0,0l0,0l0,0l0,0l0,0l0,0l0,0l0,0l0,0l0,0l0,0l0,0l0,0l0,0l0,0l0,0l0,0l0,0l0,0l0,0l0,0l0,0l0,0l0,0l0,0
					l0,0l0,0l0,0l0,0l0,0l0,0l0,0l0,0l0,0l0,0l0,0l0,0l0,0l0,0l0,0l0,0l0,0l0,0l0,0l0,0l0,0l0,0l0,0l0,0l0,0l0,0l0,0l0,0l0,0l0,0
					l0,0l0,0l0,0l0,0l0,0l0,0l0,0l0,0l0,0l0,0l0,0l0,0l0,0l0,0l0,0l0,0l0,0l0,0l0,0l0,0l0,0l0,0l0,0l0,0l0,0l0,0l0,0l0,0l0,0l0,0
					l0,0l0,0l0,0l0,0l0,0l0,0l0,0l0,0l0,0l0,0l0,0l0,0l0,0l0,0l0,0l0,0l0,0l0,0l0,0l0,0l0,0l0,0l0,0l0,0l0,0l0,0l0,0l0,0l0,0l0,0
					l0,0l0,0l0,0l0,0l0,0l0,0l0,0l0,0l0,0l0,0l0,0l0,0l0,0l0,0l0,0l0,0l0,0l0,0l0,0l0,0l0,0l0,0l0,0l0,0l0,0l0,0l0,0l0,0l0,0l0,0
					l0,0l0,0l0,0l0,0l0,0l0,0l0,0l0,0v-8.1h-5.3v8.1c0,1.7-0.7,3.2-1.9,4.4L-317.4-121.4L-317.4-121.4z"/>
			</g>
		</g>
	</g>
</g>
<g>
	<path class="st0" d="M54.7,210.8l-0.5-0.7c1.3-8.8,2.2-14.9,2.6-18.3c-1.2-2.7-1-4.6,0.6-5.7c0.4-0.3,0.9-0.5,1.6-0.6l0.6,0.4
		c0.1,0.3,0.3,0.6,0.6,1.1c0.3,0.4,0.9,1,1.9,1.8s1.8,1.5,2.4,2.1s1.2,1.3,1.8,2.1c0.9,1.3,1.5,2.7,1.7,4.3c0.2,1.6,0.2,3.3-0.2,5.1
		c-0.4,1.8-1,3.9-2,6.3c0.8-0.4,1.4-0.7,1.8-1c0.8-0.6,1.5-1.4,2.2-2.4c0.6-1,1.2-2.2,1.7-3.6c0.5-1.3,1-3,1.5-5l1.4,2
		c-0.8,4.2-1.7,7.5-2.8,10.2s-2.3,4.4-3.8,5.4c-1.8,1.3-4.1,1.7-6.7,1.2c-1.6-0.3-2.8-0.8-3.6-1.5C56.6,213.4,55.7,212.3,54.7,210.8
		z M62.4,198.8l-3.5-3.9c-0.3,2.2-1,6.6-2.2,13.2c1.3-0.6,2.4-0.8,3.1-0.6s1.9,0.5,3.5,1.2c0.9-1.5,1.4-2.9,1.5-4.3
		c0.1-1.4-0.5-3-1.6-4.6c-0.1-0.2-0.3-0.4-0.4-0.5C62.7,199.1,62.6,198.9,62.4,198.8z"/>
	<path class="st0" d="M94.6,181.8l1.3,1.8c-0.5,2.9-1,5.3-1.4,7.3c-0.5,2-1,3.5-1.5,4.7c-0.5,1.2-1.1,2-1.8,2.5
		c-1.5,1.1-2.9,0.7-4.1-1.1c-1-1.4-1.7-3.4-2.1-6c-0.4-2.5-0.6-5.7-0.6-9.5c-0.5,1.1-1,2.2-1.3,3.4c-0.3,1.2-0.6,2.3-0.7,3.4
		c-0.1,1.1-0.2,2-0.3,2.8c-0.3,2.3-0.5,4.6-0.6,6.9c-0.1,2.3-0.2,3.8-0.3,4.5s-0.3,1.2-0.7,1.5c-1.5,1.1-3.6-0.3-6.2-4
		c-0.9-1.2-1.6-2.7-2.3-4.4c-0.7-1.7-1-4.4-1.1-7.9c-0.2-7.5-0.1-13.6,0-18.6c0.2-4.9,0.5-8.8,0.9-11.5c0.4-2.8,0.9-4.3,1.5-4.7
		c0.7-0.4,1.4-0.7,1.9-0.7c0.6-0.1,0.9,0,1.1,0.3c0.3,0.5,0.6,1.5,0.7,3.1c0.1,1.6,0.2,4.1,0.2,7.6c0,3.7,0,6.4-0.1,7.9
		c0,1.5-0.1,3.7-0.3,6.6c-0.2,2.9-0.3,5.5-0.5,7.8c-0.2,2.3-0.5,4.9-0.8,7.7l2.4,3.5c0.6-4.7,1.2-8.6,1.8-11.8s1.3-5.7,1.9-7.5
		c0.7-1.9,1.3-3,1.9-3.4c0.6-0.4,1.4-0.4,2.4-0.1c1,0.3,1.6,0.7,1.9,1.2c0.1,0.2,0.2,0.5,0.2,0.9c-0.2,2.6-0.4,4.8-0.4,6.5
		c-0.1,1.7,0,3.1,0.1,4.3c0.2,1.2,0.5,2.1,0.9,2.7c0.6,0.9,1.4,1.1,2.3,0.5C91.9,189.2,93.1,186.5,94.6,181.8z"/>
	<path class="st0" d="M106.9,170.2c-0.2,5.7-0.5,9.8-0.9,12.4c-0.4,2.6-1,4.2-1.9,4.9c-0.7,0.5-1.6,0.7-2.7,0.5
		c-1-0.2-2.1-0.7-3.2-1.5c-1.1-0.8-2-1.8-2.8-3c-0.5-0.8-1-1.5-1.2-2.2s-0.5-1.6-0.6-2.6c-0.1-1-0.1-2.2-0.1-3.6
		c0.1-1.3,0.2-2.9,0.4-4.7c0.1-1.1,0.2-2,0.3-2.7c0.1-0.7,0.2-1.3,0.5-1.8c0.3-0.4,0.8-0.9,1.7-1.5c0.6-0.4,1.3-0.8,1.9-1
		c0.7-0.2,1.1-0.3,1.2-0.1c0.2,0.3,0.4,1.2,0.5,2.5s-0.1,3.1-0.4,5.3c-0.4,2.2-0.9,4.5-1.7,6.9c0.4,1.4,0.9,2.4,1.3,3
		c0.6,0.8,1.2,1,1.8,0.6c0.2-0.2,0.5-0.6,0.7-1.4c0.3-0.8,0.6-2.2,1.1-4.2c0.5-2,1-3.8,1.4-5.4c0.3-1.2,0.5-2.8,0.6-4.8
		c0.1-2,0.2-3.6,0.4-4.6c0.4-2.5,0.7-4.2,0.9-5c0.2-0.8,0.6-1.4,1-1.7c0.5-0.3,0.9-0.4,1.3-0.2c0.4,0.2,0.9,0.7,1.5,1.6
		c0.3,0.4,0.5,0.8,0.6,1.1c0.1,0.3,0.2,0.7,0.2,1.3s0.1,1.6,0.1,3.2c0,1.6,0,3.5,0,5.6c0,1.2,0.1,2.3,0.4,3.5c0.2,1.2,0.5,2,0.8,2.5
		c0.7,1,1.5,1.2,2.2,0.7c0.7-0.5,1.2-1.3,1.7-2.4c0.5-1.2,1.1-3.1,2-5.7l1.4,1.9c-0.8,3.7-1.4,6.4-1.8,8.1c-0.4,1.7-0.9,3.1-1.3,4.1
		s-1,1.8-1.8,2.3c-1.6,1.1-3.1,0.7-4.5-1.2c-0.5-0.7-1-1.9-1.4-3.5C108,175.7,107.5,173.4,106.9,170.2z"/>
	<path class="st0" d="M133.7,154.5l1.4,2c-0.4,2-0.6,3.4-0.9,4.4c-0.2,0.9-0.7,2.1-1.4,3.3c1.2,1.8,2.2,3.3,2.9,4.7s1.2,2.9,1.6,4.7
		c0.4,1.8,0.5,3.9,0.3,6.4c-0.1,2.5-0.5,4.6-1.1,6.3c-0.6,1.7-1.2,2.8-1.9,3.3c-0.8,0.5-1.9,0.4-3.4-0.4s-2.9-2.1-4.2-4
		c-1.2-1.8-2.2-3.8-3-6.2s-1.6-5.6-2.5-9.5c-1.8-0.6-3.2-1.5-4-2.7c-0.7-1-1-1.9-0.8-2.8c0.1-0.9,0.5-1.9,1.2-2.9
		c-0.1-1.5-0.1-2.9,0-4.1c0.1-1.2,0.2-2.7,0.4-4.7c-1.4-6.4-2.5-12.9-3.1-19.5c-0.2-1.8-0.2-3.1-0.2-3.8c0-0.7,0.2-1.2,0.6-1.4
		c0.3-0.2,0.8-0.2,1.4,0.1c0.6,0.3,1.2,0.9,1.7,1.6c0.7,1,1.2,1.9,1.5,2.8c0.4,0.9,0.6,1.9,0.8,3c0.2,1.1,0.3,2.4,0.4,4
		c0.1,1.6,0.2,2.6,0.2,3c0.2,2.4,0.4,5,0.7,8c0.2,2.9,0.4,5.2,0.5,6.9c0.1,1.7,0.3,3,0.4,3.8c1.7,0.2,3.1,0.4,4.1,0.6
		s2.1,0.6,3.2,1.3c0.5-0.7,0.9-1.4,1.2-2.2c0.3-0.7,0.6-1.7,0.9-2.8C133.1,156.5,133.4,155.5,133.7,154.5z M130.5,168.3l-0.5-0.6
		c-0.5,0.4-0.9,0.8-1.3,1c-0.4,0.2-0.8,0.4-1.3,0.6s-1,0.3-1.3,0.3c-0.3,0.1-0.7,0.1-1,0.2c1,4.6,2.4,8.1,4.1,10.5
		c0.8,1.2,1.7,2.1,2.7,2.7s1.7,0.7,2.1,0.4c0.5-0.4,0.8-1.2,1-2.7c0.1-1.4-0.1-3.2-0.8-5.3C133.5,173.2,132.3,170.9,130.5,168.3z"/>
	<path class="st0" d="M149.9,143.2l1.4,2c-0.4,2-0.6,3.4-0.9,4.4c-0.2,0.9-0.7,2.1-1.4,3.3c1.2,1.8,2.2,3.3,2.9,4.7
		c0.7,1.4,1.2,2.9,1.6,4.7c0.4,1.8,0.5,3.9,0.3,6.4c-0.1,2.5-0.5,4.6-1.1,6.3c-0.6,1.7-1.2,2.8-1.9,3.3c-0.8,0.5-1.9,0.4-3.4-0.4
		c-1.5-0.8-2.9-2.1-4.2-4c-1.2-1.8-2.2-3.8-3-6.2c-0.8-2.4-1.6-5.6-2.5-9.5c-1.8-0.6-3.2-1.5-4-2.7c-0.7-1-1-1.9-0.8-2.8
		c0.1-0.9,0.5-1.9,1.2-2.9c-0.1-1.5-0.1-2.9,0-4.1c0.1-1.2,0.2-2.7,0.4-4.7c-1.4-6.4-2.5-12.9-3.1-19.5c-0.2-1.8-0.2-3.1-0.2-3.8
		c0-0.7,0.2-1.2,0.6-1.4c0.3-0.2,0.8-0.2,1.4,0.1c0.6,0.3,1.2,0.9,1.7,1.6c0.7,1,1.2,1.9,1.5,2.8c0.4,0.9,0.6,1.9,0.8,3
		c0.2,1.1,0.3,2.4,0.4,4c0.1,1.6,0.2,2.6,0.2,3c0.2,2.4,0.4,5,0.7,8c0.2,2.9,0.4,5.2,0.5,6.9c0.1,1.7,0.3,3,0.4,3.8
		c1.7,0.2,3.1,0.4,4.1,0.6c1.1,0.2,2.1,0.7,3.2,1.3c0.5-0.7,0.9-1.4,1.2-2.2c0.3-0.7,0.6-1.7,0.9-2.8
		C149.2,145.3,149.6,144.2,149.9,143.2z M146.6,157.1l-0.5-0.6c-0.5,0.4-0.9,0.8-1.3,1c-0.4,0.2-0.8,0.4-1.3,0.6
		c-0.5,0.2-1,0.3-1.3,0.3c-0.3,0.1-0.7,0.1-1,0.2c1,4.6,2.4,8.1,4.1,10.5c0.8,1.2,1.7,2.1,2.7,2.7c0.9,0.6,1.7,0.7,2.1,0.4
		c0.5-0.4,0.8-1.2,1-2.7c0.1-1.4-0.1-3.2-0.8-5.3C149.6,161.9,148.4,159.6,146.6,157.1z"/>
	<path class="st0" d="M163.5,133.2l1.5,2.2c-0.3,8.2-1.7,13.2-4.3,15c-1.4,1-3,1-4.8,0c-1.8-1-3.6-2.7-5.3-5.1c-1.4-2-2.6-4.7-3.5-8
		c-1-3.4-1.7-7-2-10.9c-0.4-3.9-0.5-7.5-0.3-10.7s0.8-5.8,1.6-7.6c0.3-0.8,0.7-1.2,1-1.5c0.4-0.3,0.8-0.3,1.2,0
		c0.4,0.3,0.9,0.8,1.5,1.7c1.9,2.7,3.1,6.8,3.6,12.2c0.5,5.5,0.3,11.6-0.8,18.4c0.5,1.1,1,2,1.3,2.5c0.9,1.2,1.8,2.1,2.9,2.5
		c1.1,0.4,2.1,0.3,3-0.4c0.5-0.3,0.9-0.9,1.2-1.7c0.3-0.8,0.6-1.7,0.8-2.6C162.4,138.1,162.9,136.1,163.5,133.2z M151.2,134
		c0.3-1.7,0.5-3.5,0.6-5.4c0.1-1.9,0-3.9-0.2-5.9c-0.2-2-0.4-3.8-0.7-5.2s-0.7-2.5-1.1-3.1c-0.3-0.4-0.6-0.6-0.9-0.3
		c-0.1,0.1-0.3,0.3-0.4,0.8c-0.5,1.8-0.5,4.6,0,8.5C148.8,127.2,149.8,130.7,151.2,134z"/>
	<path class="st0" d="M168.9,131.5l0.5,0.7c0.8,1.1,1.7,1.8,2.7,2.1c1,0.2,2,0.1,2.9-0.6c1-0.7,1.8-1.6,2.5-2.7s1.3-2.5,1.8-3.9
		c0.5-1.4,1-3.3,1.6-5.5l1.2,1.8c-0.4,4.2-1,7.6-1.9,10.4s-2.4,4.8-4.4,6.2c-1.7,1.2-3.6,1.5-5.5,0.9c-1.9-0.6-3.7-2.1-5.4-4.4
		c-1.4-2-2.2-4.2-2.4-6.5c-0.2-2.3,0.1-5.2,1-8.5c0.6-2.3,1.4-4.3,2.4-5.9c1-1.7,2.1-2.9,3.2-3.7c0.9-0.6,1.8-0.9,2.6-0.9
		c0.8,0,1.5,0.5,2.1,1.3c0.9,1.2,1.2,2.8,1.2,4.6c-0.1,1.8-0.6,4-1.7,6.5C172.3,125.7,170.8,128.5,168.9,131.5z M167.8,129.4
		c1.3-1.9,2.2-3.8,2.7-5.7s0.8-3.5,0.7-4.8c-0.1-1.3-0.2-2.2-0.5-2.6c-0.3-0.4-0.7-0.5-1.1-0.2c-0.3,0.2-0.8,0.9-1.2,1.9
		c-0.5,1-0.9,2.1-1.2,3.4c-0.3,1.3-0.4,2.6-0.4,4C166.9,126.8,167.2,128.1,167.8,129.4z"/>
</g>
</svg>
